<svg xmlns="http://www.w3.org/2000/svg" width="29" height="28" fill="none" viewBox="0 0 29 28"><path stroke="#323232" stroke-linecap="round" stroke-linejoin="round" stroke-width="1.5" d="M22.083 11.533s.584 2.014.584 5.384c0 3.37-.454 6.32-.908 6.74-.454.422-3.63.843-7.26.843-3.629 0-6.805-.421-7.258-.842-.454-.422-.908-3.37-.908-6.741 0-3.37.583-5.384.583-5.384m15.167 0c.359-.02.604-.04.713-.06.519-.098 1.037-.778 1.037-1.556s-.518-1.458-1.037-1.556c-.518-.097-4.148-.194-8.296-.194s-7.778.097-8.296.194c-.519.098-1.037.778-1.037 1.556s.518 1.458 1.037 1.556c.108.02.354.04.713.06m15.166 0c-1.35.073-4.305.134-7.583.134-3.278 0-6.233-.06-7.583-.134m7.426-3.541c.641-2.39 4.313-6.531 6.063-3.5 1.75 3.031-3.672 4.14-6.063 3.5Zm.23 0c-.641-2.39-4.313-6.531-6.063-3.5-1.75 3.031 3.672 4.14 6.063 3.5Z"/><path stroke="#fff" stroke-linecap="round" stroke-linejoin="round" stroke-width="3.5" d="m23.833 25.667-2.362-2.363m0 0a4.084 4.084 0 1 0-5.775-5.775 4.084 4.084 0 0 0 5.775 5.775Z"/><path stroke="#323232" stroke-linecap="round" stroke-linejoin="round" stroke-width="1.5" d="m23.833 25.667-2.362-2.363m0 0a4.084 4.084 0 1 0-5.775-5.775 4.084 4.084 0 0 0 5.775 5.775Z"/></svg>