<svg xmlns="http://www.w3.org/2000/svg" width="151" height="45" fill="none" viewBox="0 0 151 45"><path fill="#000" d="M144.944 45H6.056C2.944 45 .5 42.556.5 39.444V6.111C.5 3 2.944.556 6.056.556h138.888C148.056.556 150.5 3 150.5 6.11v33.333c0 3.111-2.444 5.556-5.556 5.556Z"/><path fill="#A6A6A6" d="M144.944 1.444c2.556 0 4.667 2.112 4.667 4.667v33.333c0 2.556-2.111 4.667-4.667 4.667H6.056c-2.556 0-4.667-2.111-4.667-4.667V6.111c0-2.555 2.111-4.667 4.667-4.667h138.888Zm0-.888H6.056C2.944.556.5 3.11.5 6.11v33.333C.5 42.555 2.944 45 6.056 45h138.888c3.112 0 5.556-2.444 5.556-5.556V6.111c0-3-2.444-5.555-5.556-5.555Z"/><path fill="#fff" stroke="#fff" stroke-miterlimit="10" stroke-width="1.185" d="M53.167 11.89c0 .888-.223 1.666-.778 2.221-.667.667-1.445 1-2.445 1-1 0-1.777-.333-2.444-1-.667-.666-1-1.444-1-2.444s.333-1.778 1-2.444c.667-.667 1.444-1 2.444-1 .445 0 .89.11 1.334.333.444.222.778.444 1 .778l-.556.555c-.444-.555-1-.778-1.778-.778-.666 0-1.333.223-1.777.778-.556.445-.778 1.111-.778 1.89 0 .777.222 1.444.778 1.888.555.444 1.11.778 1.777.778.778 0 1.334-.222 1.89-.778a1.84 1.84 0 0 0 .555-1.333h-2.445v-.89h3.223v.445Zm5.11-2.779h-3v2.112h2.779V12h-2.778v2.111h3v.89h-3.89V8.333h3.89v.777Zm3.667 5.89h-.888V9.11h-1.89v-.777h4.667v.777h-1.889v5.89Zm5.112 0V8.333h.889V15h-.89Zm4.666 0h-.889V9.11h-1.888v-.777H73.5v.777h-1.889v5.89h.111Zm10.556-.89c-.667.667-1.445 1-2.445 1-1 0-1.777-.333-2.444-1-.667-.666-1-1.444-1-2.444s.333-1.778 1-2.444c.667-.667 1.444-1 2.444-1s1.778.333 2.445 1c.666.666 1 1.444 1 2.444s-.334 1.778-1 2.444Zm-4.222-.555c.444.444 1.11.778 1.777.778.667 0 1.334-.223 1.778-.778a2.68 2.68 0 0 0 .778-1.889c0-.778-.222-1.444-.778-1.889-.444-.444-1.11-.778-1.778-.778-.666 0-1.333.223-1.777.778a2.68 2.68 0 0 0-.778 1.889c0 .778.222 1.444.778 1.889ZM84.5 15V8.334h1l3.222 5.222V8.334h.89V15h-.89l-3.444-5.444V15H84.5Z"/><path fill="#fff" d="M76.167 24.778c-2.667 0-4.778 2-4.778 4.777a4.742 4.742 0 0 0 4.778 4.778c2.666 0 4.778-2 4.778-4.777 0-2.89-2.112-4.778-4.778-4.778Zm0 7.555c-1.445 0-2.667-1.222-2.667-2.889 0-1.666 1.222-2.889 2.667-2.889 1.444 0 2.666 1.112 2.666 2.89 0 1.666-1.222 2.888-2.666 2.888Zm-10.334-7.555c-2.666 0-4.777 2-4.777 4.777a4.742 4.742 0 0 0 4.777 4.778c2.667 0 4.778-2 4.778-4.777 0-2.89-2.111-4.778-4.778-4.778Zm0 7.555c-1.444 0-2.666-1.222-2.666-2.889 0-1.666 1.222-2.889 2.666-2.889 1.445 0 2.667 1.112 2.667 2.89 0 1.666-1.222 2.888-2.667 2.888ZM53.5 26.223v2h4.778c-.111 1.11-.556 2-1.111 2.555-.667.666-1.778 1.444-3.667 1.444-3 0-5.222-2.333-5.222-5.333s2.333-5.334 5.222-5.334c1.556 0 2.778.667 3.667 1.445l1.444-1.445c-1.222-1.11-2.778-2-5-2-4 0-7.444 3.334-7.444 7.334 0 4 3.444 7.333 7.444 7.333 2.222 0 3.778-.666 5.111-2.11 1.334-1.334 1.778-3.223 1.778-4.668 0-.444 0-.889-.111-1.222H53.5Zm50.444 1.555c-.444-1.111-1.555-3-4-3-2.444 0-4.444 1.889-4.444 4.777 0 2.667 2 4.778 4.667 4.778 2.111 0 3.444-1.333 3.889-2.11L102.5 31.11c-.556.778-1.222 1.333-2.333 1.333-1.111 0-1.778-.444-2.334-1.444l6.334-2.667-.223-.555ZM97.5 29.333c0-1.777 1.445-2.777 2.445-2.777.777 0 1.555.444 1.777 1L97.5 29.332Zm-5.222 4.556h2.11V20h-2.11v13.889Zm-3.334-8.111c-.555-.556-1.444-1.111-2.555-1.111-2.333 0-4.556 2.11-4.556 4.777 0 2.667 2.112 4.667 4.556 4.667 1.111 0 2-.555 2.444-1.111h.112v.667c0 1.777-1 2.777-2.556 2.777-1.222 0-2.111-.889-2.333-1.666l-1.778.778c.555 1.222 1.889 2.777 4.222 2.777 2.445 0 4.445-1.444 4.445-4.889V25h-2v.778ZM86.5 32.333c-1.444 0-2.667-1.222-2.667-2.889 0-1.666 1.223-2.889 2.667-2.889 1.445 0 2.556 1.223 2.556 2.89 0 1.666-1.111 2.888-2.556 2.888ZM113.611 20h-5v13.889h2.111v-5.222h2.889c2.333 0 4.556-1.667 4.556-4.334 0-2.666-2.223-4.333-4.556-4.333Zm.111 6.667h-3v-4.778h3c1.556 0 2.445 1.333 2.445 2.333-.111 1.222-1 2.445-2.445 2.445Zm12.778-2c-1.556 0-3.111.666-3.667 2.11l1.889.778c.445-.777 1.111-1 1.889-1 1.111 0 2.111.667 2.222 1.778v.111c-.333-.222-1.222-.555-2.111-.555-2 0-4 1.111-4 3.111 0 1.889 1.667 3.111 3.445 3.111 1.444 0 2.111-.667 2.666-1.333h.111v1.11h2v-5.332c-.222-2.445-2.111-3.89-4.444-3.89Zm-.222 7.666c-.667 0-1.667-.333-1.667-1.222 0-1.111 1.222-1.444 2.222-1.444.889 0 1.334.222 1.889.444-.222 1.333-1.333 2.222-2.444 2.222ZM137.944 25l-2.333 6h-.111l-2.444-6h-2.223l3.667 8.444-2.111 4.667h2.111L140.167 25h-2.223Zm-18.666 8.889h2.111V20h-2.111v13.889Z"/><path fill="url(#paint0_linear_2137_11166)" d="M12.056 8.889c-.334.333-.445.889-.445 1.555V35c0 .666.222 1.222.556 1.555l.11.111L26.057 22.89v-.223l-14-13.777Z"/><path fill="url(#paint1_linear_2137_11166)" d="m30.5 27.555-4.555-4.556v-.333L30.5 18.11l.111.111 5.445 3.112c1.555.889 1.555 2.333 0 3.222l-5.556 3Z"/><path fill="url(#paint2_linear_2137_11166)" d="m30.611 27.445-4.667-4.667-13.888 13.89c.555.555 1.333.555 2.333.11l16.222-9.333Z"/><path fill="url(#paint3_linear_2137_11166)" d="M30.611 18.111 14.389 8.889c-1-.556-1.778-.445-2.333.11l13.888 13.779 4.667-4.667Z"/><path fill="#000" d="m30.5 27.333-16.111 9.111c-.89.556-1.667.445-2.222 0l-.111.111.11.111c.556.445 1.334.556 2.223 0l16.11-9.333Z" opacity=".2"/><path fill="#000" d="M12.056 36.445c-.334-.333-.445-.889-.445-1.556v.112c0 .666.222 1.222.556 1.555v-.111h-.111Zm24-12.222-5.556 3.11.111.112 5.445-3.111c.777-.444 1.11-1 1.11-1.556 0 .556-.444 1-1.11 1.445Z" opacity=".12"/><path fill="#fff" d="m14.389 9 21.667 12.333c.666.445 1.11.89 1.11 1.445 0-.556-.333-1.111-1.11-1.556L14.389 8.89C12.833 8 11.61 8.667 11.61 10.445v.11c0-1.666 1.222-2.444 2.778-1.555Z" opacity=".25"/><defs><linearGradient id="paint0_linear_2137_11166" x1="24.722" x2="6.074" y1="10.233" y2="28.88" gradientUnits="userSpaceOnUse"><stop stop-color="#00A0FF"/><stop offset=".007" stop-color="#00A1FF"/><stop offset=".26" stop-color="#00BEFF"/><stop offset=".512" stop-color="#00D2FF"/><stop offset=".76" stop-color="#00DFFF"/><stop offset="1" stop-color="#00E3FF"/></linearGradient><linearGradient id="paint1_linear_2137_11166" x1="38.093" x2="11.208" y1="22.778" y2="22.778" gradientUnits="userSpaceOnUse"><stop stop-color="#FFE000"/><stop offset=".409" stop-color="#FFBD00"/><stop offset=".775" stop-color="orange"/><stop offset="1" stop-color="#FF9C00"/></linearGradient><linearGradient id="paint2_linear_2137_11166" x1="28.085" x2="2.799" y1="25.329" y2="50.616" gradientUnits="userSpaceOnUse"><stop stop-color="#FF3A44"/><stop offset="1" stop-color="#C31162"/></linearGradient><linearGradient id="paint3_linear_2137_11166" x1="8.608" x2="19.9" y1=".751" y2="12.043" gradientUnits="userSpaceOnUse"><stop stop-color="#32A071"/><stop offset=".069" stop-color="#2DA771"/><stop offset=".476" stop-color="#15CF74"/><stop offset=".801" stop-color="#06E775"/><stop offset="1" stop-color="#00F076"/></linearGradient></defs></svg>