<svg xmlns="http://www.w3.org/2000/svg" width="128" height="128" viewBox="0 0 29 29"><path fill="#FFF" d="M0 0h29v29H0z" shape-rendering="crispEdges"/><path fill="#000" d="M0 0h7v1H0zm9 0h3v1H9zm4 0h1v1h-1zm2 0h5v1h-5zm7 0h7v1h-7zM0 1h1v1H0zm6 0h1v1H6zm3 0h1v1H9zm4 0h3v1h-3zm4 0h1v1h-1zm5 0h1v1h-1zm6 0h1v1h-1zM0 2h1v1H0zm2 0h3v1H2zm4 0h1v1H6zm2 0h1v1H8zm4 0h1v1h-1zm3 0h1v1h-1zm3 0h1v1h-1zm4 0h1v1h-1zm2 0h3v1h-3zm4 0h1v1h-1zM0 3h1v1H0zm2 0h3v1H2zm4 0h1v1H6zm2 0h1v1H8zm3 0h1v1h-1zm3 0h1v1h-1zm2 0h2v1h-2zm4 0h1v1h-1zm2 0h1v1h-1zm2 0h3v1h-3zm4 0h1v1h-1zM0 4h1v1H0zm2 0h3v1H2zm4 0h1v1H6zm2 0h1v1H8zm9 0h4v1h-4zm5 0h1v1h-1zm2 0h3v1h-3zm4 0h1v1h-1zM0 5h1v1H0zm6 0h1v1H6zm2 0h1v1H8zm2 0h1v1h-1zm2 0h1v1h-1zm3 0h1v1h-1zm7 0h1v1h-1zm6 0h1v1h-1zM0 6h7v1H0zm8 0h1v1H8zm2 0h1v1h-1zm2 0h1v1h-1zm2 0h1v1h-1zm2 0h1v1h-1zm2 0h1v1h-1zm2 0h1v1h-1zm2 0h7v1h-7zM8 7h1v1H8zm3 0h1v1h-1zm3 0h1v1h-1zm4 0h1v1h-1zM0 8h1v1H0zm2 0h5v1H2zm8 0h1v1h-1zm3 0h2v1h-2zm4 0h1v1h-1zm3 0h1v1h-1zm2 0h5v1h-5zM2 9h1v1H2zm2 0h2v1H4zm3 0h1v1H7zm8 0h10v1H15zm13 0h1v1h-1zM0 10h3v1H0zm4 0h3v1H4zm5 0h1v1H9zm4 0h1v1h-1zm2 0h2v1h-2zm3 0h1v1h-1zm2 0h1v1h-1zm3 0h1v1h-1zM0 11h4v1H0zm7 0h2v1H7zm4 0h2v1h-2zm4 0h1v1h-1zm8 0h3v1h-3zm4 0h1v1h-1zM1 12h2v1H1zm5 0h1v1H6zm2 0h1v1H8zm3 0h1v1h-1zm5 0h2v1h-2zm7 0h1v1h-1zm2 0h2v1h-2zM0 13h2v1H0zm3 0h1v1H3zm4 0h1v1H7zm2 0h3v1H9zm4 0h1v1h-1zm3 0h5v1h-5zm6 0h3v1h-3zm6 0h1v1h-1zM0 14h3v1H0zm4 0h1v1H4zm2 0h1v1H6zm3 0h1v1H9zm2 0h7v1h-7zm10 0h1v1h-1zm2 0h1v1h-1zm2 0h2v1h-2zM0 15h2v1H0zm7 0h1v1H7zm4 0h1v1h-1zm2 0h1v1h-1zm2 0h1v1h-1zm3 0h6v1h-6zm9 0h1v1h-1zM0 16h1v1H0zm2 0h2v1H2zm3 0h3v1H5zm5 0h3v1h-3zm4 0h4v1h-4zm5 0h1v1h-1zm6 0h2v1h-2zM0 17h2v1H0zm3 0h1v1H3zm5 0h1v1H8zm3 0h1v1h-1zm4 0h5v1h-5zm6 0h4v1h-4zm5 0h1v1h-1zm2 0h1v1h-1zM0 18h1v1H0zm3 0h1v1H3zm3 0h1v1H6zm2 0h1v1H8zm2 0h1v1h-1zm2 0h1v1h-1zm3 0h4v1h-4zm5 0h2v1h-2zm4 0h1v1h-1zm2 0h1v1h-1zM0 19h1v1H0zm2 0h1v1H2zm6 0h2v1H8zm4 0h1v1h-1zm2 0h2v1h-2zm9 0h1v1h-1zm4 0h1v1h-1zM0 20h1v1H0zm3 0h2v1H3zm3 0h2v1H6zm4 0h1v1h-1zm2 0h1v1h-1zm3 0h1v1h-1zm2 0h2v1h-2zm3 0h5v1h-5zm6 0h3v1h-3zM8 21h2v1H8zm4 0h3v1h-3zm4 0h3v1h-3zm4 0h1v1h-1zm4 0h5v1h-5zM0 22h7v1H0zm9 0h1v1H9zm4 0h3v1h-3zm4 0h1v1h-1zm2 0h2v1h-2zm3 0h1v1h-1zm2 0h3v1h-3zM0 23h1v1H0zm6 0h1v1H6zm2 0h1v1H8zm2 0h2v1h-2zm3 0h1v1h-1zm2 0h1v1h-1zm4 0h2v1h-2zm5 0h1v1h-1zm4 0h1v1h-1zM0 24h1v1H0zm2 0h3v1H2zm4 0h1v1H6zm2 0h2v1H8zm3 0h1v1h-1zm3 0h1v1h-1zm2 0h2v1h-2zm4 0h5v1h-5zm6 0h1v1h-1zM0 25h1v1H0zm2 0h3v1H2zm4 0h1v1H6zm2 0h2v1H8zm3 0h2v1h-2zm5 0h3v1h-3zm4 0h1v1h-1zm5 0h4v1h-4zM0 26h1v1H0zm2 0h3v1H2zm4 0h1v1H6zm2 0h1v1H8zm3 0h1v1h-1zm2 0h6v1h-6zm9 0h6v1h-6zM0 27h1v1H0zm6 0h1v1H6zm3 0h1v1H9zm3 0h3v1h-3zm4 0h1v1h-1zm3 0h2v1h-2zm6 0h1v1h-1zm2 0h1v1h-1zM0 28h7v1H0zm8 0h1v1H8zm2 0h1v1h-1zm2 0h1v1h-1zm2 0h3v1h-3zm5 0h1v1h-1zm4 0h2v1h-2zm3 0h1v1h-1z" shape-rendering="crispEdges"/></svg>